
<svg
  width="40"
  height="40"
  viewBox="0 0 40 40"
  fill="none"
  xmlns="http://www.w3.org/2000/svg"
>
  <path
    d="M39.3994 24.8381C36.7282 35.5525 25.8763 42.0731 15.1606 39.4012C4.44948 36.7301 -2.07109 25.8775 0.601229 15.1639C3.2712 4.44838 14.1231 -2.07268 24.8355 0.598468C35.5504 3.26961 42.0705 14.1234 39.3991 24.8383L39.3993 24.8381H39.3994Z"
    fill="#F7931A"
  />
  <path
    d="M28.8192 17.1505C29.2172 14.4889 27.1909 13.0582 24.42 12.1038L25.3189 8.49851L23.1243 7.95165L22.2492 11.462C21.6722 11.3181 21.0797 11.1826 20.4908 11.0481L21.3722 7.51457L19.1789 6.96771L18.2796 10.5719C17.8021 10.4632 17.3332 10.3557 16.8782 10.2425L16.8807 10.2312L13.8542 9.4754L13.2704 11.8194C13.2704 11.8194 14.8987 12.1927 14.8644 12.2157C15.7531 12.4375 15.9138 13.0258 15.8871 13.4921L14.8632 17.5994C14.9244 17.6149 15.0038 17.6374 15.0914 17.6726C15.0181 17.6544 14.9402 17.6346 14.8594 17.6152L13.4242 23.369C13.3156 23.639 13.0399 24.0442 12.4186 23.8903C12.4406 23.9222 10.8234 23.4923 10.8234 23.4923L9.73383 26.0045L12.5898 26.7164C13.1211 26.8497 13.6418 26.9891 14.1545 27.1202L13.2464 30.7668L15.4385 31.3137L16.3379 27.7057C16.9367 27.8683 17.5179 28.0183 18.0869 28.1596L17.1905 31.7506L19.3853 32.2974L20.2934 28.6576C24.0357 29.3659 26.8497 29.0803 28.0342 25.6953C28.9886 22.97 27.9866 21.3981 26.0178 20.373C27.4518 20.0423 28.5319 19.0991 28.8199 17.1508L28.8193 17.1503L28.8192 17.1505ZM23.8048 24.1818C23.1266 26.9071 18.538 25.4339 17.0503 25.0645L18.2555 20.2333C19.7431 20.6047 24.5137 21.3396 23.8049 24.1818H23.8048ZM24.4836 17.111C23.8649 19.59 20.0457 18.3305 18.8069 18.0217L19.8995 13.6401C21.1384 13.9489 25.1281 14.5253 24.4838 17.111H24.4836Z"
    fill="white"
  />
</svg>
