<svg width="40" height="40" viewBox="0 0 40 40" fill="none" xmlns="http://www.w3.org/2000/svg">
<g clip-path="url(#clip0_4868_2679)">
<path d="M20 0C31.0444 0 40 8.95556 40 20C40 31.0444 31.0444 40 20 40C8.95556 40 0 31.05 0 20C0 8.95 8.95556 0 20 0Z" fill="#26A17B"/>
<path d="M22.8161 17.7701V14.7923H29.6217V10.259H11.0939V14.7923H17.8995V17.7701C12.3717 18.0256 8.21057 19.1201 8.21057 20.4312C8.21057 21.7423 12.3717 22.8368 17.8995 23.0923V32.6201H22.8217V23.0923C28.3439 22.8368 32.4939 21.7423 32.4939 20.4312C32.4884 19.1201 28.3384 18.0256 22.8161 17.7701ZM22.8217 22.2868C22.6828 22.2923 21.9717 22.3368 20.3828 22.3368C19.1106 22.3368 18.2217 22.3034 17.905 22.2868V22.2923C13.0217 22.0756 9.37168 21.2256 9.37168 20.209C9.37168 19.1923 13.0161 18.3423 17.905 18.1256V21.4368C18.2272 21.459 19.1383 21.5145 20.405 21.5145C21.9217 21.5145 22.6828 21.4534 22.8272 21.4368V18.1145C27.705 18.3312 31.3439 19.1812 31.3439 20.1979C31.3328 21.2145 27.6939 22.0645 22.8217 22.2868" fill="white"/>
</g>
<defs>
<clipPath id="clip0_4868_2679">
<rect width="40" height="40" fill="white"/>
</clipPath>
</defs>
</svg>
